# AST/ASF file generated using VICON BodyLanguage
# -----------------------------------------------
:version 1.10
:name VICON
:units
  mass 1.0
  length 0.45
  angle deg
:documentation
   .ast/.asf automatically generated from VICON data using
   VICON BodyBuilder and BodyLanguage model FoxedUp or BRILLIANT.MOD
:root
   order TX TY TZ RX RY RZ
   axis XYZ
   position 0 0 0  
   orientation 0 0 0 
:bonedata
  begin
     id 1 
     name lhipjoint
     direction 0.547975 -0.797114 0.253638 
     length 2.36201 
     axis 0 0 0  XYZ
  end
  begin
     id 2 
     name lfemur
     direction 0.34202 -0.939693 0  
     length 7.69075  
     axis 0 0 20  XYZ
    dof rx ry rz
    limits (-160.0 20.0)
           (-70.0 70.0)
           (-60.0 70.0)
  end
  begin
     id 3 
     name ltibia
     direction 0.34202 -0.939693 0   
     length 7.91399   
     axis 0 0 20   XYZ
    dof rx
    limits (-10.0 170.0)
  end
  begin
     id 4 
     name lfoot
     direction 0.0705293 -0.193778 0.978507   
     length 2.13618   
     axis -90 7.62852e-016 20   XYZ
    dof rx rz
    limits (-45.0 90.0)
           (-70.0 20.0)
  end
  begin
     id 5 
     name ltoes
     direction 1.53592e-011 -4.21925e-011 1   
     length 1.07518   
     axis -90 7.62852e-016 20   XYZ
    dof rx
    limits (-90.0 20.0)
  end
  begin
     id 6 
     name rhipjoint
     direction -0.57 -0.782963 0.249136   
     length 2.4047  
     axis 0 0 0  XYZ 
  end
  begin
     id 7 
     name rfemur
     direction -0.34202 -0.939693 0   
     length 7.51486   
     axis 0 0 -20   XYZ
    dof rx ry rz
    limits (-160.0 20.0)
           (-70.0 70.0)
           (-70.0 60.0)
  end
  begin
     id 8 
     name rtibia
     direction -0.34202 -0.939693 0   
     length 8.08317   
     axis 0 0 -20   XYZ
    dof rx
    limits (-10.0 170.0)
 end
 begin
     id 9 
     name rfoot
     direction -0.104954 -0.281256 0.953876   
     length 2.30343  
     axis -90 -7.62852e-016 -20   XYZ
    dof rx rz
    limits (-45.0 90.0)
           (-20.0 70.0)
  end
  begin
     id 10 
     name rtoes
     direction -1.53556e-011 -4.21922e-011 1   
     length 1.14803   
     axis -90 -7.62852e-016 -20   XYZ
    dof rx
    limits (-90.0 20.0)
  end
  begin
     id 11 
     name lowerback
     direction -0.0152855 0.99353 -0.11254   
     length 2.05311   
     axis 0 0 0   XYZ
    dof rx ry rz
    limits (-20.0 45.0)
           (-30.0 30.0)
           (-30.0 30.0)
  end
  begin
     id 12 
     name upperback
     direction -0.00157509 0.999443 -0.033332   
     length 2.06353   
     axis 0 0 0   XYZ
    dof rx ry rz
    limits (-20.0 45.0)
           (-30.0 30.0)
           (-30.0 30.0)
  end
  begin
     id 13 
     name thorax
     direction 0.00577788 0.999804 0.0189484   
     length 2.08472   
     axis 0 0 0   XYZ
    dof rx ry rz
    limits (-20.0 45.0)
           (-30.0 30.0)
           (-30.0 30.0)
  end
  begin
     id 14 
     name lowerneck
     direction -1.09301e-005 0.994719 0.10264   
     length 1.76249   
     axis 0 0 0   XYZ
    dof rx ry rz
    limits (-20.0 45.0)
           (-30.0 30.0)
           (-30.0 30.0)
  end
  begin
     id 15 
     name upperneck
     direction 0.0495018 0.988526 -0.142706   
     length 1.77897   
     axis 0 0 0   XYZ
    dof rx ry rz
    limits (-20.0 45.0)
           (-30.0 30.0)
           (-30.0 30.0)
  end
  begin
     id 16
     name head
     direction 0.0142736 0.998114 -0.0597101  
     length 1.78934  
     axis 0 0 0   XYZ
    dof rx ry rz
    limits (-20.0 45.0)
           (-30.0 30.0)
           (-30.0 30.0)
  end
  begin
     id 17 
     name lclavicle
     direction 0.918111 0.396107 -0.0130883  
     length 3.37276  
     axis 0 0 0   XYZ
    dof ry rz
    limits (-20.0 10.0)
           (0.0 20.0)
  end
  begin
     id 18 
     name lhumerus
     direction 1 -4.48975e-011 -3.26108e-027   
     length 5.34298   
     axis 180 -30 -90   XYZ
    dof rx ry rz
    limits (-60.0 90.0)
           (-90.0 90.0)
           (-90.0 90.0)
  end
  begin
     id 19
     name lradius
     direction 1 -4.48964e-011 -8.84413e-028   
     length 3.67262   
     axis 180 -30 -90   XYZ
    dof rx
    limits (-10.0 170.0)
  end
  begin
     id 20
     name lwrist
     direction 1 -4.48991e-011 -1.24264e-027   
     length 1.83631   
     axis -2.17013e-015 90 90   XYZ
    dof ry
    limits (-180.0 0.0)
 end
  begin
     id 21 
     name lhand
     direction 1 -4.48855e-011 -2.48528e-027   
     length 0.599298   
     axis 1.58582e-015 90 90   XYZ
    dof rx rz
    limits (-90.0 90.0)
           (-45.0 45.0)
  end
  begin
     id 22 
     name lfingers
     direction 1 -4.48811e-011 -4.97056e-027   
     length 0.48317   
     axis 3.17164e-015 90 90   XYZ
    dof rx
    limits (0.0 90.0)
  end
  begin
     id 23
     name lthumb
     direction 0.707107 -6.34882e-011 0.707107   
     length 0.693738   
     axis -90 45 2.85299e-015   XYZ
    dof rx rz
    limits (-45.0 45.0)
           (-45.0 45.0)
  end
  begin
     id 24 
     name rclavicle
     direction -0.920511 0.384752 -0.0680135   
     length 3.43787  
     axis 0 0 0   XYZ 
    dof ry rz
    limits (-10.0 20.0)
           (-20.0 0.0)
  end
  begin
     id 25 
     name rhumerus
     direction -0.999976 -0.00330524 0.00603274  
     length 5.5498   
     axis 180 30 90   XYZ
    dof rx ry rz
    limits (-90.0 60.0)
           (-90.0 90.0)
           (-90.0 90.0)
  end
  begin
     id 26 
     name rradius
     direction -1 -4.48967e-011 8.62438e-027   
     length 3.69401   
     axis 180 30 90   XYZ
    dof rx
    limits (-10.0 170.0)
  end
  begin
     id 27 
     name rwrist
     direction -1 -4.4897e-011 9.54866e-027   
     length 1.84701   
     axis -7.69462e-015 -90 -90   XYZ
    dof ry
    limits (-180.0 0.0)
  end
  begin
     id 28
     name rhand
     direction -1 -4.48982e-011 1.90973e-026   
     length 0.638113   
     axis -1.21857e-014 -90 -90   XYZ
    dof rx rz
    limits (-90.0 90.0)
           (-45.0 45.0)
  end
  begin
     id 29
     name rfingers
     direction -1 -4.48936e-011 3.81946e-026   
     length 0.514463   
     axis -2.43714e-014 -90 -90   XYZ
    dof rx
    limits (0.0 90.0)
  end
  begin
     id 30
     name rthumb
     direction -0.707107 -6.34942e-011 0.707107   
     length 0.738669   
     axis -90 -45 -2.85299e-015   XYZ
    dof rx rz
    limits (-45.0 45.0)
           (-45.0 45.0)
  end
:hierarchy
  begin
    root lhipjoint rhipjoint lowerback
    lhipjoint lfemur
    lfemur ltibia
    ltibia lfoot
    lfoot ltoes
    rhipjoint rfemur
    rfemur rtibia
    rtibia rfoot
    rfoot rtoes
    lowerback upperback
    upperback thorax
    thorax lowerneck lclavicle rclavicle
    lowerneck upperneck
    upperneck head
    lclavicle lhumerus
    lhumerus lradius
    lradius lwrist
    lwrist lhand lthumb
    lhand lfingers
    rclavicle rhumerus
    rhumerus rradius
    rradius rwrist
    rwrist rhand rthumb
    rhand rfingers
  end

#!OML:ASF F:\twosubjects\two\Thursday\Session 1\Rory.ASF
:FULLY-SPECIFIED
:DEGREES
49
root 18.0336 12.8513 9.88578 -54.8569 -82.0266 17.0006
lowerback 21.2279 1.50046 1.58517
upperback 15.3415 0.947347 -0.247108
thorax 4.99515 0.0619426 -1.35878
lowerneck -0.898679 8.48072 9.36409
upperneck 11.201 11.6948 -7.6647
head 4.50394 5.77067 -3.28902
rclavicle -1.60519e-014 2.38542e-015
rhumerus -17.2746 1.92915 -91.1924
rradius 64.2337
rwrist 19.7924
rhand 5.36391 22.5511
rfingers 7.12502
rthumb 30.717 -4.90392
lclavicle -1.60519e-014 2.38542e-015
lhumerus -17.8005 -27.1376 92.1066
lradius 68.9506
lwrist -16.7409
lhand 0.825266 34.1238
lfingers 7.12502
lthumb 26.3806 62.3085
rfemur -24.6655 6.50529 0.00470189
rtibia 38.6249
rfoot 0.573893 -29.1845
rtoes 48.8184
lfemur -22.4827 -4.69132 -8.67395
ltibia 29.3257
lfoot 27.9976 6.5237
ltoes 14.8958
50
root 18.044 12.8544 9.88415 -56.2042 -81.9277 18.3633
lowerback 21.2987 1.49284 1.18615
upperback 15.3189 0.871618 -0.298228
thorax 4.91983 -0.0092297 -1.17789
lowerneck -1.19638 8.54893 9.10979
upperneck 11.4754 11.7571 -7.38695
head 4.61164 5.79421 -3.14325
rclavicle 1.63003e-014 -6.36111e-015
rhumerus -17.3382 2.61623 -91.256
rradius 64.3643
rwrist 19.6062
rhand 4.94412 22.2651
rfingers 7.12502
rthumb 30.3167 -5.26437
lclavicle 1.63003e-014 -6.36111e-015
lhumerus -17.9245 -26.9092 91.9705
lradius 69.0863
lwrist -16.6908
lhand 0.840512 34.2777
lfingers 7.12502
lthumb 26.3952 62.4602
rfemur -24.9372 6.37374 -0.118022
rtibia 38.9165
rfoot 2.74986 -29.0434
rtoes 47.1931
lfemur -22.1314 -4.59605 -8.88001
ltibia 28.6014
lfoot 28.2365 6.09062
ltoes 13.9621
51
root 18.0485 12.8649 9.88489 -56.0985 -82.0422 18.27
lowerback 21.2007 1.43164 1.17265
upperback 15.3442 0.78432 -0.288397
thorax 4.99414 -0.0566259 -1.14511
lowerneck -1.40395 8.61525 9.09633
upperneck 11.7102 11.8437 -7.39905
head 4.72553 5.82826 -3.12529
rclavicle 3.65329e-014 -1.31198e-014
rhumerus -17.3779 3.12147 -91.3194
rradius 64.4073
rwrist 19.5603
rhand 4.67845 22.1603
rfingers 7.12502
rthumb 30.0632 -5.41554
lclavicle 3.65329e-014 -1.31198e-014
lhumerus -17.9179 -26.6204 91.8683
lradius 69.1713
lwrist -16.6449
lhand 1.19333 34.3853
lfingers 7.12502
lthumb 26.7329 62.5167
rfemur -25.0218 6.8918 -0.225926
rtibia 39.0756
rfoot 1.43515 -29.4519
rtoes 48.8319
lfemur -21.8769 -4.57272 -8.7706
ltibia 28.1198
lfoot 28.6467 6.60918
ltoes 14.9554
52
root 18.0486 12.8775 9.88735 -55.6309 -81.9498 17.7908
lowerback 21.0775 1.4465 1.36212
upperback 15.3939 0.833954 -0.253157
thorax 5.11897 -0.0153402 -1.22082
lowerneck -1.56664 8.47864 8.92441
upperneck 11.8146 11.6541 -7.34153
head 4.75454 5.72616 -3.08683
rclavicle 3.00662e-015 -1.8487e-014
rhumerus -17.4527 2.92798 -91.113
rradius 64.497
rwrist 19.5425
rhand 4.92767 22.1004
rfingers 7.12502
rthumb 30.301 -5.43197
lclavicle 3.00662e-015 -1.8487e-014
lhumerus -17.859 -26.9117 92.0269
lradius 69.1644
lwrist -16.5263
lhand 1.27271 34.1652
lfingers 7.12502
lthumb 26.8088 62.2851
rfemur -24.9621 7.04271 -0.407172
rtibia 39.1089
rfoot 0.558499 -29.3731
rtoes 48.838
lfemur -21.7971 -4.631 -8.86114
ltibia 28.0228
lfoot 29.031 6.58503
ltoes 14.2779
53
root 18.0408 12.8699 9.88713 -56.1176 -81.7635 18.2884
lowerback 21.0902 1.48532 1.34549
upperback 15.3734 0.889298 -0.328853
thorax 5.09198 0.01808 -1.30141
lowerneck -1.50346 8.36615 8.93087
upperneck 11.7428 11.4924 -7.255
head 4.70374 5.65368 -3.07728
rclavicle -5.36097e-015 -4.87022e-015
rhumerus -17.563 2.85153 -90.9952
rradius 64.5994
rwrist 19.2795
rhand 5.05306 21.9412
rfingers 7.12502
rthumb 30.4206 -5.56908
lclavicle -5.36097e-015 -4.87022e-015
lhumerus -17.8185 -27.0144 92.1144
lradius 69.0363
lwrist -16.6957
lhand 1.11624 33.6821
lfingers 7.12502
lthumb 26.6591 61.8248
rfemur -24.9035 6.76931 -0.567181
rtibia 39.0847
rfoot -0.168028 -29.2033
rtoes 49.1697
lfemur -21.788 -4.66307 -9.08844
ltibia 27.9737
lfoot 29.2847 5.93585
ltoes 12.0332
54
root 18.0412 12.86 9.88454 -56.3946 -81.8825 18.5473
lowerback 21.2032 1.49017 1.37906
upperback 15.3629 0.898345 -0.363552
thorax 5.02618 0.0250572 -1.36017
lowerneck -1.29261 8.39509 9.11785
upperneck 11.5317 11.5406 -7.36108
head 4.62521 5.68693 -3.14719
rclavicle -1.27409e-014 2.17669e-014
rhumerus -17.4945 2.97344 -91.0686
rradius 64.5238
rwrist 19.1399
rhand 4.65866 21.786
rfingers 7.12502
rthumb 30.0443 -5.79322
lclavicle -1.27409e-014 2.17669e-014
lhumerus -17.7749 -26.9271 92.0155
lradius 68.986
lwrist -16.8584
lhand 1.22619 33.6647
lfingers 7.12502
lthumb 26.7643 61.7913
rfemur -24.9267 7.03165 -0.53306
rtibia 39.1292
rfoot -2.02075 -29.3746
rtoes 50.7331
lfemur -21.7681 -4.60719 -8.97882
ltibia 27.9651
lfoot 29.0011 6.15489
ltoes 12.5834
55
root 18.0497 12.8663 9.88246 -56.1618 -81.9656 18.275
lowerback 21.2257 1.4816 1.45341
upperback 15.4014 0.892318 -0.341409
thorax 5.0614 0.0246451 -1.37776
lowerneck -1.20756 8.39189 9.0787
upperneck 11.3722 11.5399 -7.37646
head 4.5607 5.68783 -3.15219
rclavicle 1.07344e-014 -6.85807e-015
rhumerus -17.2597 2.71247 -91.1855
rradius 64.3256
rwrist 19.4046
rhand 4.73818 22.1189
rfingers 7.12502
rthumb 30.1202 -5.44656
lclavicle 1.07344e-014 -6.85807e-015
lhumerus -17.736 -27.0777 91.9259
lradius 69.0338
lwrist -16.7041
lhand 1.22071 34.1656
lfingers 7.12502
lthumb 26.7591 62.293
rfemur -24.9768 7.40204 -0.529098
rtibia 39.1822
rfoot -2.36972 -29.5679
rtoes 50.614
lfemur -21.7989 -4.30199 -8.91329
ltibia 28.0865
lfoot 28.636 5.79421
ltoes 12.6761
56
root 18.0475 12.867 9.88303 -55.8892 -81.8002 18.0387
lowerback 21.1294 1.45942 1.32226
upperback 15.4031 0.845356 -0.331987
thorax 5.1049 -0.00880787 -1.28543
lowerneck -1.25959 8.33838 8.99653
upperneck 11.4209 11.4625 -7.31488
head 4.56924 5.64766 -3.12343
rclavicle 6.86428e-015 -2.5842e-015
rhumerus -17.1592 2.51891 -91.2295
rradius 64.2536
rwrist 19.4978
rhand 5.19484 22.5131
rfingers 7.12502
rthumb 30.5558 -4.97208
lclavicle 6.86428e-015 -2.5842e-015
lhumerus -17.7263 -27.0884 91.9679
lradius 68.9923
lwrist -16.7042
lhand 0.959378 34.324
lfingers 7.12502
lthumb 26.509 62.4895
rfemur -25.022 7.23931 -0.645143
rtibia 39.2028
rfoot -1.12127 -29.4984
rtoes 49.5176
lfemur -21.96 -4.07521 -9.08366
ltibia 28.2475
lfoot 28.7056 5.34058
ltoes 12.3972
57
root 18.0353 12.851 9.88653 -55.898 -81.7701 18.1385
lowerback 21.0718 1.45078 1.27448
upperback 15.3672 0.832095 -0.316575
thorax 5.08945 -0.0179399 -1.23906
lowerneck -1.33089 8.26154 8.89362
upperneck 11.4812 11.3532 -7.24884
head 4.58051 5.59062 -3.0914
rclavicle 9.7653e-015 2.13694e-014
rhumerus -17.1952 2.60677 -91.2018
rradius 64.3145
rwrist 19.5495
rhand 5.07873 22.4516
rfingers 7.12502
rthumb 30.4451 -5.05417
lclavicle 9.7653e-015 2.13694e-014
lhumerus -17.7683 -27.0662 92.0282
lradius 68.9831
lwrist -16.6926
lhand 0.825033 34.3705
lfingers 7.12502
lthumb 26.3804 62.5553
rfemur -25.104 6.71146 -0.498855
rtibia 39.1588
rfoot 0.670738 -29.2123
rtoes 48.2057
lfemur -22.1452 -4.296 -9.07448
ltibia 28.4016
lfoot 28.8142 5.44998
ltoes 11.9753
58
root 18.0291 12.841 9.88862 -56.2092 -81.8091 18.4904
lowerback 21.049 1.43971 1.30015
upperback 15.3618 0.822086 -0.350603
thorax 5.09563 -0.0188043 -1.28826
lowerneck -1.33328 8.2189 8.74594
upperneck 11.4539 11.2788 -7.05322
head 4.54697 5.55747 -3.01478
rclavicle 2.01456e-014 3.03147e-014
rhumerus -17.2202 2.70937 -91.2387
rradius 64.3773
rwrist 19.6802
rhand 4.86909 22.3007
rfingers 7.12502
rthumb 30.2451 -5.24189
lclavicle 2.01456e-014 3.03147e-014
lhumerus -17.7318 -26.9561 92.0027
lradius 68.9979
lwrist -16.5751
lhand 0.927576 34.6159
lfingers 7.12502
lthumb 26.4785 62.786
rfemur -25.1254 6.44534 -0.351907
rtibia 39.0457
rfoot 1.76116 -29.0752
rtoes 47.2847
lfemur -22.2509 -4.49802 -9.02821
ltibia 28.5665
lfoot 28.7565 5.26622
ltoes 10.4042
59
root 18.0297 12.843 9.88687 -56.4424 -81.8862 18.6689
lowerback 21.0795 1.42835 1.36028
upperback 15.3809 0.812638 -0.389659
thorax 5.1051 -0.0183438 -1.36305
lowerneck -1.33616 8.19622 8.70557
upperneck 11.4608 11.2314 -6.89336
head 4.53468 5.53995 -2.96298
rclavicle -2.32951e-015 -7.35503e-015
rhumerus -17.3161 2.81772 -91.2972
rradius 64.4641
rwrist 19.4653
rhand 4.88988 22.2245
rfingers 7.12502
rthumb 30.2649 -5.31444
lclavicle -2.32951e-015 -7.35503e-015
lhumerus -17.7025 -26.7685 91.9572
lradius 68.9812
lwrist -16.6226
lhand 1.10633 34.4874
lfingers 7.12502
lthumb 26.6496 62.6316
rfemur -25.0324 6.5895 -0.285924
rtibia 38.9232
rfoot 1.69567 -29.1331
rtoes 47.5732
lfemur -22.2094 -4.53544 -8.94573
ltibia 28.6715
lfoot 28.8614 5.35912
ltoes 10.216
60
root 18.0268 12.8452 9.88508 -56.524 -81.9124 18.5913
lowerback 21.2675 1.44319 1.43389
upperback 15.3873 0.839642 -0.389228
thorax 5.0231 -0.0017233 -1.41009
lowerneck -1.21173 8.0959 8.77044
upperneck 11.3315 11.1005 -6.93281
head 4.46962 5.48021 -3.00145
rclavicle 1.16972e-014 6.85807e-015
rhumerus -17.38 2.61091 -91.3357
rradius 64.3778
rwrist 19.4509
rhand 4.91434 22.4284
rfingers 7.12502
rthumb 30.2883 -5.10632
lclavicle 1.16972e-014 6.85807e-015
lhumerus -17.8253 -26.9187 91.9524
lradius 69.0086
lwrist -16.6618
lhand 1.1802 34.1417
lfingers 7.12502
lthumb 26.7203 62.2751
rfemur -24.8283 6.60681 -0.234097
rtibia 38.8828
rfoot 1.67726 -29.06
rtoes 47.7729
lfemur -21.9641 -4.66951 -8.87391
ltibia 28.6557
lfoot 28.8652 6.19583
ltoes 12.845
61
root 18.0241 12.8501 9.88595 -55.7313 -81.8656 17.7852
lowerback 21.2458 1.40155 1.51354
upperback 15.3878 0.799136 -0.362646
thorax 5.03484 -0.0162949 -1.41954
lowerneck -0.896878 7.99192 8.66943
upperneck 10.9255 10.9638 -6.86165
head 4.2728 5.42224 -2.9934
rclavicle -9.33667e-015 -8.84592e-015
rhumerus -17.2984 2.38478 -91.338
rradius 64.2063
rwrist 19.688
rhand 5.04895 22.5955
rfingers 7.12502
rthumb 30.4167 -4.91551
lclavicle -9.33667e-015 -8.84592e-015
lhumerus -17.8666 -27.0977 91.959
lradius 69.0342
lwrist -16.5193
lhand 1.12403 34.1925
lfingers 7.12502
lthumb 26.6666 62.3341
rfemur -24.7392 6.58739 -0.28182
rtibia 38.9477
rfoot 0.961423 -28.9847
rtoes 48.0715
lfemur -21.919 -4.78159 -8.83836
ltibia 28.6468
lfoot 28.2639 6.89514
ltoes 15.9477
62
root 18.0212 12.8522 9.88779 -55.4599 -81.8455 17.6527
lowerback 21.0301 1.35311 1.55927
upperback 15.3728 0.749126 -0.397356
thorax 5.12411 -0.0316558 -1.4726
lowerneck -0.74745 7.90343 8.55545
upperneck 10.7457 10.8342 -6.69114
head 4.16758 5.36579 -2.94182
rclavicle -4.55465e-014 3.03147e-014
rhumerus -17.2978 2.5745 -91.3436
rradius 64.2912
rwrist 19.5911
rhand 5.20561 22.322
rfingers 7.12502
rthumb 30.5661 -5.16129
lclavicle -4.55465e-014 3.03147e-014
lhumerus -17.7897 -26.9503 91.9536
lradius 68.9967
lwrist -16.4475
lhand 1.09555 34.3742
lfingers 7.12502
lthumb 26.6393 62.5199
rfemur -24.844 6.60975 -0.377073
rtibia 38.9679
rfoot 0.281795 -29.1686
rtoes 49.3851
lfemur -22.0562 -4.68005 -8.86046
ltibia 28.6138
lfoot 27.9161 6.85389
ltoes 16.5982
63
root 18.012 12.8392 9.8894 -56.2282 -81.7554 18.488
lowerback 20.9941 1.39214 1.45772
upperback 15.3377 0.791284 -0.452493
thorax 5.10083 -0.0131123 -1.48074
lowerneck -0.800513 7.78717 8.57073
upperneck 10.8828 10.6693 -6.62365
head 4.20236 5.28569 -2.92995
rclavicle 1.35733e-014 -4.87022e-015
rhumerus -17.3916 2.68815 -91.305
rradius 64.4401
rwrist 19.3963
rhand 5.168 22.0679
rfingers 7.12502
rthumb 30.5302 -5.42203
lclavicle 1.35733e-014 -4.87022e-015
lhumerus -17.8192 -26.8666 91.9974
lradius 68.9893
lwrist -16.689
lhand 1.02058 34.4318
lfingers 7.12502
lthumb 26.5675 62.5884
rfemur -24.9903 6.31809 -0.434125
rtibia 38.9862
rfoot 1.2784 -29.2422
rtoes 49.9897
lfemur -22.128 -4.47588 -9.0257
ltibia 28.5789
lfoot 28.4375 6.59688
ltoes 15.5228
